# xmcd
#
# Track frame offsets:
#	150
#	17970
#	35405
#	55423
#	74563
#	92298
#	109488
#	131803
#	151193
#	168590
#	188508
#	204268
#	226853
#	250680
#	274775
#	292288
#	310840
#
# Disc length: 4461 seconds
# Revision: 9
# Processed by: cddbd v1.5.2PL0 Copyright (c) Steve Scherf et al.
# Submitted via: dBpowerAMP V12.0
#
DISCID=f1116b11
DTITLE=MichaelBolton,AKABolotin,NewHaven,CT - Michael Bolton - Greatest Hits 1985-1995
DYEAR=1996
DGENRE=Pop
TTITLE0=That's What Love Is All About
TTITLE1=(Sittin' On) The Dock Of The Bay
TTITLE2=Soul Provider
TTITLE3=How Am I Supposed To Live Without You
TTITLE4=How Can We Be Lovers
TTITLE5=When I'm Back On My Feet Again
TTITLE6=Georgia On My Mind
TTITLE7=Time, Love And Tenderness
TTITLE8=When A Man Loves A Woman
TTITLE9=Missing You Now
TTITLE10=Steel Bars
TTITLE11=Said I Loved You...But I Lied
TTITLE12=Can I Touch You...There?
TTITLE13=I Promise You
TTITLE14=I Found Someone
TTITLE15=A Love So Beautiful
TTITLE16=This River
EXTD=
EXTT0=
EXTT1=
EXTT2=
EXTT3=
EXTT4=
EXTT5=
EXTT6=
EXTT7=
EXTT8=
EXTT9=
EXTT10=
EXTT11=
EXTT12=
EXTT13=
EXTT14=
EXTT15=
EXTT16=
PLAYORDER=
